<svg width="256" height="256" viewBox="0 0 256 256" fill="none" xmlns="http://www.w3.org/2000/svg">
<path d="M67 86.3926C67.0001 83.5746 70.534 82.3117 72.3203 84.4912L144.126 172.099C145.731 174.057 144.337 177 141.806 177H106.615C105.711 177 104.854 176.592 104.284 175.889L67.6689 130.7C67.2361 130.166 67 129.499 67 128.812V86.3926Z" fill="#44DCE6"/>
<path d="M184.674 84.542C186.456 82.3533 190 83.6137 190 86.4365V125.481C190 126.195 189.746 126.885 189.283 127.428L176.579 142.337C176.009 143.006 175.175 143.391 174.296 143.392H143.072C140.545 143.392 139.15 140.457 140.746 138.497L184.674 84.542Z" fill="#44DCE6"/>
<path fill-rule="evenodd" clip-rule="evenodd" d="M135 0C137.761 0 140 2.23858 140 5V24.6846C187.909 30.1888 225.915 68.2492 231.336 116.184H251C253.761 116.184 256 118.422 256 121.184V135.184C256 137.945 253.761 140.184 251 140.184H231.293C225.72 187.945 187.787 225.824 140 231.314V251C140 253.761 137.761 256 135 256H121C118.239 256 116 253.761 116 251V231.314C68.0909 225.81 30.0851 187.751 24.6641 139.816H5C2.23858 139.816 0 137.578 0 134.816V120.816C0 118.055 2.23858 115.816 5 115.816H24.707C30.2802 68.055 68.2133 30.1748 116 24.6846V5C116 2.23858 118.239 0 121 0H135ZM128 42C80.5035 42 42 80.5035 42 128C42 175.496 80.5035 214 128 214C175.496 214 214 175.496 214 128C214 80.5035 175.496 42 128 42Z" fill="#44DCE6"/>
</svg>
